<?xml version="1.0" encoding="utf-8" ?>
<svg xmlns="http://www.w3.org/2000/svg" xmlns:xlink="http://www.w3.org/1999/xlink" width="160" height="80">
	<path fill="#1A3B59" transform="matrix(-0.156743 0 0 -0.156743 160.505 80.2529)" d="M468.918 209.391L524.661 209.391C525.989 211.681 525.645 223.072 524.661 225.498L505.45 225.498L505.45 278.453L505.45 297.453L490.018 297.453L490.018 225.498L468.918 225.498L468.918 209.391Z"/>
	<path fill="#1A3B59" transform="matrix(-0.156743 0 0 -0.156743 160.505 80.2529)" d="M533.23 209.391C537.013 208.699 541.844 209.284 545.73 209.301L574.691 209.391C576.656 212.572 576.477 222.528 574.691 225.498L548.484 225.498C549.734 227.761 549.524 242.339 548.484 244.592C556.633 244.798 564.837 244.596 572.992 244.592C574.115 247.018 574.072 257.794 572.992 260.101C567.247 261.017 554.791 260.225 548.484 260.101C549.742 262.886 549.649 272.788 548.484 275.602C549.792 277.387 549.61 279.372 548.484 281.223L575.736 281.223C577.479 284.682 577.619 294.356 575.736 297.453L533.23 297.453C534.343 295.215 533.293 285.572 533.261 282.4L533.24 228.888C533.252 223.382 534.329 214.413 533.23 209.391Z"/>
	<path fill="#1A3B59" transform="matrix(-0.156743 0 0 -0.156743 160.505 80.2529)" d="M876.088 208.25C883.772 207.611 904.425 213.476 905.489 223.306C904.768 226.535 897.688 231.385 894.783 232.745C893.745 225.125 869.858 219.067 870.637 230.16C871.599 243.858 904.489 248.336 906 269.999C907.155 286.564 895.768 297.797 879.623 298.825C863.037 299.935 858.771 289.024 849.372 281.463L849.068 281.223C852.573 279.788 858.105 275.164 860.668 272.339C866.807 276.78 880.991 290.182 888.403 278.74C897.204 265.152 859.356 257.395 855.316 237.722C852.188 222.494 861.532 211.311 876.088 208.25Z"/>
	<path fill="#D1342D" transform="matrix(-0.156743 0 0 -0.156743 160.505 80.2529)" d="M584.181 209.391C589.029 208.554 595.54 209.489 600.559 209.391C604.157 212.189 615.457 235.383 614.893 237.607C618.653 234.757 630.234 211.657 629.741 209.391L646.166 209.391C646.203 214.982 627.97 247.172 623.659 250.565C625.479 252.246 647.685 293.812 648.236 296.7C646.949 297.778 644.963 297.473 643.375 297.453L631.712 297.453C631.917 293.761 617.874 269.286 614.893 267.022C614.958 270.996 601.916 295.462 598.969 297.453L582.18 297.453C584.802 295.382 606.502 254.19 606.499 251.824C606.423 249.963 586.64 212.484 584.181 209.391Z"/>
	<path fill="#1A3B59" transform="matrix(-0.156743 0 0 -0.156743 160.505 80.2529)" d="M726.454 209.391C730.918 208.854 735.927 209.332 740.446 209.342L771.121 209.391C772.447 211.73 772.091 223.004 771.121 225.498L742.515 225.498C743.723 227.75 743.55 242.362 742.515 244.592L766.48 244.592C767.711 246.935 767.415 257.652 766.48 260.101C762.886 261.049 747.132 260.192 742.515 260.101C743.778 262.956 743.696 272.783 742.515 275.602C743.475 277.3 743.635 278.713 742.515 280.452C752.011 280.513 761.65 279.898 771.121 280.452C773.66 283.909 773.189 294.096 771.121 297.453C756.414 296.66 741.217 297.44 726.454 297.453C727.353 295.49 726.446 235.119 726.458 229.425C726.47 223.114 727.52 215.524 726.454 209.391Z"/>
	<path fill="#1A3B59" transform="matrix(-0.156743 0 0 -0.156743 160.505 80.2529)" d="M828.523 209.391C833.785 209.538 839.058 209.432 844.321 209.391C845.279 211.965 845.472 224.926 844.321 227.25C846.484 231.438 844.445 239.058 844.306 243.679C843.868 258.19 846.224 274.194 837.002 286.694C827.067 300.16 808.379 303.124 795.006 292.863C781.243 282.304 782.509 264.161 782.544 248.691L782.702 222.46C782.755 218.357 783.25 213.766 782.645 209.741L782.59 209.391C787.548 208.917 793 209.456 798.031 209.391C801.732 217.073 786.364 295.809 819.43 280.213C833.131 273.751 828.472 242.265 828.53 229.936C828.556 224.425 830.845 214.261 828.523 209.391Z"/>
	<path fill="#1A3B59" transform="matrix(-0.156743 0 0 -0.156743 160.505 80.2529)" d="M425.436 209.391C430.281 208.986 435.031 209.143 439.875 209.391C448.293 238.142 460.969 268.641 470.599 297.453L454.082 297.453C452.055 291.09 449.809 284.78 447.665 278.453L439.875 278.453L417.336 278.453C415.309 284.764 413.265 291.06 411.512 297.453L395.323 297.453C405.186 268.035 415.032 238.625 425.436 209.391ZM432.68 234.35L422.712 263.686L432.68 263.686L442.999 263.686C440.787 256.891 435.915 239.48 432.68 234.35Z"/>
	<path fill="#1A3B59" transform="matrix(-0.156743 0 0 -0.156743 160.505 80.2529)" d="M343.041 209.391C359.203 209.476 378.437 205.242 391.301 217.526C410.739 236.088 397.624 264.757 366.343 265.217C363.803 265.162 361.252 265.213 358.712 265.217L358.712 297.453L343.041 297.453L343.041 209.391ZM361.364 225.498C356.035 225.915 358.728 244.446 358.712 250.565C364.866 250.243 373.814 251.013 379.114 247.686C393.498 233.268 377.535 224.748 361.364 225.498Z"/>
	<path fill="#1A3B59" transform="matrix(-0.156743 0 0 -0.156743 160.505 80.2529)" d="M656.992 209.391C660.941 208.853 665.533 209.343 669.53 209.391C672.877 211.75 698.71 258.451 698.753 261.995C700.67 257.622 700.138 215.026 697.609 209.391C703.148 209.531 708.656 209.513 714.195 209.391C715.753 212.95 714.197 263.806 714.199 272.152C714.2 278.335 716.327 289.799 714.195 295.255L714.482 296.471L714.009 297.071C710.097 297.975 705.166 297.408 701.133 297.453C701.218 292.981 680.759 260.588 677.052 253.682C675.529 250.843 674.535 246.614 672 244.592C673.995 249.622 672.331 296.648 672 297.453L656.992 297.453C657.873 295.693 656.984 235.378 656.995 229.922C657.007 223.403 658.028 215.752 656.992 209.391Z"/>
	<path fill="#1A3B59" transform="matrix(-0.156743 0 0 -0.156743 160.505 80.2529)" d="M265.304 260.101L296.716 260.101L296.738 283.338C296.73 318.121 288.457 333.78 251.857 333.736L208.833 333.709C208.57 325.505 208.829 317.21 208.833 308.996L229.715 308.996C230.119 297.883 229.658 286.724 229.715 275.602C241.559 275.606 253.468 275.877 265.304 275.602L265.304 260.101Z"/>
	<path fill="#049A95" transform="matrix(-0.156743 0 0 -0.156743 160.505 80.2529)" d="M119.976 260.101L153.056 260.101L153.056 275.602L188.999 275.602L188.999 308.996C195.621 309.139 202.211 309.165 208.833 308.996C208.829 317.21 208.57 325.505 208.833 333.709C185.928 334.777 145.994 337.808 130.696 321.734C116.552 306.873 119.564 279.636 119.976 260.101Z"/>
	<path fill="#43A0DC" transform="matrix(-0.156743 0 0 -0.156743 160.505 80.2529)" d="M159.373 173.245C166.869 172.757 174.583 173.207 182.104 173.222L249.16 173.202C304.004 172.883 296.803 205.704 296.716 250.565L265.304 250.565L265.304 232.745C253.449 232.676 241.563 232.974 229.715 232.745C229.709 221.17 229.414 209.516 229.715 197.95C221.626 197.912 213.499 198.143 205.419 197.95C212.665 197.153 208.866 181.147 208.833 173.245C192.435 173.237 175.731 174.024 159.373 173.245Z"/>
	<path fill="#049A95" transform="matrix(-0.156743 0 0 -0.156743 160.505 80.2529)" d="M119.976 250.565L119.938 226.241C119.898 198.33 127.128 175.095 159.373 173.245C175.731 174.024 192.435 173.237 208.833 173.245C208.866 181.147 212.665 197.153 205.419 197.95L188.999 197.95L188.999 232.745L153.056 232.745C152.958 238.688 152.983 244.621 153.056 250.565C142.125 251.067 130.934 250.583 119.976 250.565Z"/>
</svg>
